<svg xmlns="http://www.w3.org/2000/svg" width="1600" height="900" viewBox="0 0 1600 900">
  <defs>
    <linearGradient id="bg" x1="0" y1="0" x2="1" y2="1">
      <stop offset="0" stop-color="#09131c"/>
      <stop offset="0.48" stop-color="#123142"/>
      <stop offset="1" stop-color="#10141d"/>
    </linearGradient>
    <linearGradient id="panel" x1="0" y1="0" x2="0" y2="1">
      <stop offset="0" stop-color="#173446"/>
      <stop offset="1" stop-color="#0c1a25"/>
    </linearGradient>
    <filter id="glow" x="-40%" y="-40%" width="180%" height="180%">
      <feGaussianBlur stdDeviation="5" result="blur"/>
      <feMerge>
        <feMergeNode in="blur"/>
        <feMergeNode in="SourceGraphic"/>
      </feMerge>
    </filter>
    <style>
      text { font-family: Inter, Arial, sans-serif; fill: #d8f4ff; letter-spacing: 1px; }
      .tiny { font-size: 18px; fill: #88aebb; }
      .label { font-size: 24px; font-weight: 700; fill: #e7fbff; }
      .note { font-size: 16px; fill: #8eb5bf; }
      .panel { fill: url(#panel); stroke: #2b6680; stroke-width: 2; rx: 16; }
      .amber { fill: #ffb24a; }
      .cyan { fill: #56e6ff; }
      .green { fill: #79ffb2; }
      .magenta { fill: #ff5cff; }
      .ink { fill: #071018; }
      .line { stroke: #46d9ff; stroke-width: 3; fill: none; }
      .warn { stroke: #ffb24a; stroke-width: 4; fill: none; }
    </style>
  </defs>

  <rect width="1600" height="900" fill="url(#bg)"/>
  <path d="M0 720 L1600 610 L1600 900 L0 900 Z" fill="#071018" opacity="0.55"/>
  <g opacity="0.18">
    <path d="M80 760 h1440 M80 810 h1440 M80 860 h1440 M120 700 v190 M240 690 v200 M420 680 v210 M640 660 v230 M820 650 v240 M1040 635 v255 M1280 620 v270 M1460 610 v280" stroke="#73f5ff" stroke-width="2"/>
  </g>

  <text x="54" y="58" font-size="34" font-weight="800">2038 AGI ROBOT CITY RPG - ASSET PREVIEW</text>
  <text x="56" y="88" class="tiny">direction board: character silhouettes, enemy readability, boss scale, city tiles, battle HUD, dialogue frame</text>

  <rect x="46" y="120" width="472" height="490" class="panel"/>
  <text x="72" y="160" class="label">Playable Rigs</text>
  <g transform="translate(88 210)">
    <rect x="0" y="88" width="92" height="116" fill="#132b36" stroke="#56e6ff" stroke-width="3"/>
    <rect x="28" y="28" width="38" height="38" fill="#f1c79a"/>
    <rect x="18" y="66" width="58" height="76" fill="#216cff"/>
    <rect x="4" y="86" width="22" height="74" fill="#162c43"/>
    <rect x="66" y="86" width="22" height="74" fill="#162c43"/>
    <rect x="-16" y="126" width="28" height="10" class="cyan" filter="url(#glow)"/>
    <rect x="80" y="126" width="28" height="10" class="cyan" filter="url(#glow)"/>
    <rect x="26" y="142" width="14" height="54" fill="#0b1018"/>
    <rect x="52" y="142" width="14" height="54" fill="#0b1018"/>
    <text x="-8" y="236" class="tiny">Kinetic Courier</text>
  </g>
  <g transform="translate(228 210)">
    <rect x="0" y="88" width="92" height="116" fill="#132b36" stroke="#79ffb2" stroke-width="3"/>
    <rect x="28" y="28" width="38" height="38" fill="#b48663"/>
    <rect x="16" y="66" width="60" height="78" fill="#22b98d"/>
    <rect x="72" y="42" width="32" height="18" class="green" filter="url(#glow)"/>
    <rect x="104" y="48" width="18" height="6" class="green"/>
    <circle cx="118" cy="50" r="13" fill="#15252b" stroke="#79ffb2" stroke-width="4"/>
    <rect x="14" y="144" width="16" height="52" fill="#0b1018"/>
    <rect x="58" y="144" width="16" height="52" fill="#0b1018"/>
    <text x="-2" y="236" class="tiny">Signal Weaver</text>
  </g>
  <g transform="translate(370 210)">
    <rect x="0" y="88" width="92" height="116" fill="#132b36" stroke="#ffb24a" stroke-width="3"/>
    <rect x="28" y="28" width="38" height="38" fill="#9e6f48"/>
    <rect x="10" y="66" width="70" height="84" fill="#d16b2d"/>
    <rect x="-22" y="82" width="22" height="72" fill="#ffb24a"/>
    <rect x="80" y="90" width="36" height="92" fill="#243642" stroke="#ffb24a" stroke-width="4"/>
    <rect x="22" y="150" width="16" height="48" fill="#0b1018"/>
    <rect x="54" y="150" width="16" height="48" fill="#0b1018"/>
    <text x="-4" y="236" class="tiny">Anchor Mender</text>
  </g>
  <g transform="translate(76 510)">
    <rect x="0" y="0" width="390" height="60" fill="#071018" opacity="0.55" rx="10"/>
    <rect x="18" y="20" width="108" height="12" class="cyan"/>
    <rect x="150" y="20" width="108" height="12" class="green"/>
    <rect x="282" y="20" width="80" height="12" class="amber"/>
    <text x="18" y="48" class="note">fast / signal / brace silhouettes</text>
  </g>

  <rect x="548" y="120" width="474" height="490" class="panel"/>
  <text x="574" y="160" class="label">Enemy Readability</text>
  <g transform="translate(585 205)">
    <g id="bot">
      <rect x="0" y="16" width="62" height="44" fill="#334755" stroke="#56e6ff" stroke-width="3"/>
      <rect x="18" y="0" width="26" height="18" fill="#56e6ff"/>
      <rect x="12" y="60" width="10" height="28" fill="#1b2830"/>
      <rect x="40" y="60" width="10" height="28" fill="#1b2830"/>
    </g>
    <use href="#bot" x="0" y="0"/>
    <use href="#bot" x="95" y="0" transform="scale(1.05 1)"/>
    <use href="#bot" x="190" y="0"/>
    <use href="#bot" x="285" y="0" transform="scale(0.9 1.1)"/>
    <use href="#bot" x="0" y="130"/>
    <use href="#bot" x="95" y="130" transform="scale(1.15 1.1)"/>
    <use href="#bot" x="190" y="130"/>
    <use href="#bot" x="285" y="130" transform="scale(1.05 0.95)"/>
    <path d="M18 245 L110 245" class="warn"/>
    <path d="M136 245 L212 245" stroke="#ff5cff" stroke-width="4"/>
    <path d="M258 245 L352 245" class="line"/>
    <text x="0" y="310" class="note">8 enemy types: sweep / lane / spider / archive / runner / bailiff / scribe / hound</text>
  </g>

  <rect x="1052" y="120" width="500" height="490" class="panel"/>
  <text x="1078" y="160" class="label">Boss Scale</text>
  <g transform="translate(1105 210)">
    <rect x="0" y="72" width="150" height="188" fill="#213847" stroke="#79ffb2" stroke-width="5"/>
    <rect x="42" y="20" width="68" height="58" fill="#d7ffee" stroke="#79ffb2" stroke-width="4"/>
    <rect x="16" y="112" width="118" height="36" fill="#79ffb2" opacity="0.8"/>
    <circle cx="48" cy="52" r="8" class="ink"/>
    <circle cx="102" cy="52" r="8" class="ink"/>
    <path d="M-40 150 C-10 120 10 120 34 156" class="line"/>
    <path d="M116 156 C152 116 174 130 190 156" class="line"/>
    <text x="-6" y="296" class="tiny">Vigilant Matron</text>
  </g>
  <g transform="translate(1320 190)">
    <polygon points="90,0 178,64 152,250 24,250 0,64" fill="#1a2a36" stroke="#ff5cff" stroke-width="5"/>
    <rect x="34" y="76" width="110" height="42" fill="#ff5cff" opacity="0.45"/>
    <rect x="58" y="130" width="62" height="92" fill="#304657" stroke="#ffb24a" stroke-width="4"/>
    <path d="M20 62 L160 62 M44 250 L44 304 M130 250 L130 304" class="warn"/>
    <circle cx="70" cy="94" r="8" class="amber"/>
    <circle cx="110" cy="94" r="8" class="amber"/>
    <text x="-2" y="316" class="tiny">Glass Bailiff IX</text>
  </g>

  <rect x="46" y="640" width="474" height="210" class="panel"/>
  <text x="72" y="680" class="label">City Tile Direction</text>
  <g transform="translate(80 704)">
    <rect x="0" y="0" width="392" height="108" fill="#112431"/>
    <g opacity="0.8">
      <path d="M0 36 H392 M0 72 H392 M56 0 V108 M112 0 V108 M168 0 V108 M224 0 V108 M280 0 V108 M336 0 V108" stroke="#2b6680" stroke-width="2"/>
    </g>
    <rect x="34" y="26" width="46" height="18" class="amber" filter="url(#glow)"/>
    <rect x="228" y="58" width="46" height="18" class="cyan" filter="url(#glow)"/>
    <polygon points="172,32 190,50 172,68 154,50" class="magenta" filter="url(#glow)"/>
    <rect x="314" y="18" width="26" height="68" fill="#203b4c" stroke="#56e6ff" stroke-width="3"/>
    <circle cx="327" cy="28" r="8" class="cyan"/>
    <text x="0" y="146" class="note">repair district tiles / surveillance pylon / memory shard</text>
  </g>

  <rect x="548" y="640" width="474" height="210" class="panel"/>
  <text x="574" y="680" class="label">Combat HUD</text>
  <g transform="translate(582 714)">
    <rect x="0" y="0" width="392" height="100" fill="#071018" stroke="#2b6680" stroke-width="3" rx="12"/>
    <rect x="24" y="20" width="170" height="16" fill="#2d1517"/>
    <rect x="24" y="20" width="128" height="16" fill="#ff5f5f"/>
    <rect x="24" y="48" width="170" height="14" fill="#132a35"/>
    <rect x="24" y="48" width="110" height="14" class="cyan"/>
    <rect x="228" y="20" width="38" height="38" fill="#14313e" stroke="#56e6ff" stroke-width="3"/>
    <rect x="278" y="20" width="38" height="38" fill="#332612" stroke="#ffb24a" stroke-width="3"/>
    <rect x="328" y="20" width="38" height="38" fill="#2d1734" stroke="#ff5cff" stroke-width="3"/>
    <circle cx="338" cy="76" r="20" fill="#10232d" stroke="#79ffb2" stroke-width="3"/>
    <text x="24" y="86" class="note">touch-safe bars, skill slots, minimap</text>
  </g>

  <rect x="1052" y="640" width="500" height="210" class="panel"/>
  <text x="1078" y="680" class="label">Dialogue Frame</text>
  <g transform="translate(1088 714)">
    <rect x="0" y="0" width="428" height="104" fill="#071018" stroke="#56e6ff" stroke-width="3" rx="12"/>
    <rect x="22" y="18" width="70" height="70" fill="#14313e" stroke="#ffb24a" stroke-width="3"/>
    <rect x="42" y="30" width="30" height="28" fill="#f1c79a"/>
    <rect x="34" y="58" width="48" height="20" fill="#216cff"/>
    <rect x="116" y="24" width="246" height="10" fill="#264b5f"/>
    <rect x="116" y="48" width="286" height="10" fill="#264b5f"/>
    <rect x="116" y="72" width="210" height="10" fill="#264b5f"/>
    <polygon points="390,78 410,78 400,92" class="amber"/>
    <text x="116" y="100" class="note">portrait + readable message area</text>
  </g>
</svg>
